<svg width="366" height="310" xmlns="http://www.w3.org/2000/svg">
 <!-- Created with Method Draw - http://github.com/duopixel/Method-Draw/ -->
 <g>
  <title>background</title>
  <rect fill="#fff" id="canvas_background" height="312" width="368" y="-1" x="-1"/>
  <g display="none" overflow="visible" y="0" x="0" height="100%" width="100%" id="canvasGrid">
   <rect fill="url(#gridpattern)" stroke-width="0" y="0" x="0" height="100%" width="100%"/>
  </g>
 </g>
 <g>
  <title>Layer 1</title>
  <path stroke="#000" id="svg_1" d="m33.78346,75.39442c-1.5601,0 -2.362,-1.35331 -2.362,-2.97618c0,-1.353 0.40089,-2.66661 1.5601,-2.66661c0.80189,0 2.00904,1.31361 2.40992,2.66661c0.80189,1.96994 0,2.97618 -1.60803,2.97618zm266.6834,77.21844c3.56926,0 4.37103,0.34708 2.362,2.6663c-1.15922,1.62287 -3.56914,2.97587 -4.72836,2.97587c-1.20702,0 -2.40992,-1.353 -2.40992,-2.97587c0,-1.66268 1.60815,-2.6663 4.77629,-2.6663zm-249.19065,-94.45555c-3.56914,-0.65665 -3.97015,-3.98179 0,-4.98572c2.00892,-0.30915 3.16826,0.65654 3.16826,2.66661c0,1.66247 -1.15934,2.62858 -3.16826,2.31911zm-44.49015,105.04394c4.77629,-0.96622 4.77629,-1.66069 3.16826,-3.94209c-1.2029,-1.66069 -1.60378,-3.67054 -0.80189,-4.3273c0.40089,-1.00571 2.40992,0 3.56914,1.97015c1.60803,2.66661 2.81081,3.01578 5.97906,1.353c1.96548,-1.00383 3.56914,-1.66226 3.56914,-0.65654c0,0.65654 1.20715,0 2.76725,-1.353c2.41004,-1.97015 2.81093,-6.29923 0.40101,-8.61855c-1.96111,-1.97015 -11.91457,-1.3134 -14.68182,1.00383c-1.60378,1.66278 -2.81093,1.3155 -4.37103,-1.66037c-2.40992,-4.94812 -2.40992,-5.64279 3.16813,-5.95194c4.77629,0 4.77629,0 0.80189,-2.00986c-2.00467,-0.96622 -3.97003,-2.97587 -3.97003,-4.28948c0,-3.32493 5.5345,-5.29509 7.94442,-2.97576c0.80189,0.96601 2.36212,1.97015 3.97015,1.97015c3.16826,0 18.29452,-11.24556 18.29452,-13.56489c0,-1.00561 1.56447,-1.66215 3.16826,-1.00561c1.96536,0.34907 5.53462,-0.65654 9.15169,-2.31932c5.12925,-2.6664 5.12925,-2.97587 2.362,-7.30316c-1.96111,-2.97587 -4.37103,-3.98179 -9.94921,-3.98179c-6.33639,0 -7.94442,0.65686 -9.90553,4.63865c-0.80626,2.6663 -3.21606,4.63655 -4.77629,4.63655c-2.76725,0 -3.56914,-2.97409 -0.80189,-4.63655c1.20278,-0.65686 2.00467,-2.97587 2.00467,-5.29519c0,-3.63283 -0.80189,-4.28948 -5.97906,-3.32315c-5.17717,0.65654 -5.17717,0.34708 -3.97015,-4.63886c0.80189,-2.97576 1.96111,-5.64216 2.76737,-5.95163c0.80189,-0.34708 1.60366,-3.32315 1.60366,-6.29902c0,-5.95226 2.36636,-6.95609 6.74177,-2.66661c2.00455,2.31922 3.21181,2.66661 3.97003,0.65654c0.80189,-1.3134 3.6127,-1.62287 7.9881,-0.96632c5.93551,1.31361 6.33639,0.96632 5.5345,-2.97587c-0.40089,-2.31901 -0.80614,-4.98562 -1.20702,-5.64216c0,-1.00414 -1.96111,-2.31932 -4.32747,-3.32347c-4.77629,-1.66215 -5.97906,-5.64216 -1.60803,-5.64216c1.20715,0 2.36624,-0.65686 2.36624,-1.97225c0,-1.00414 2.41004,-1.66069 5.57818,-1.35321c4.3754,0.34907 6.7374,-0.9658 12.71646,-7.92157c4.3754,-4.98593 7.54354,-7.65233 7.94454,-6.29933c0.40089,1.66069 2.40992,2.6267 4.37528,2.6267c3.16826,0 3.56926,-0.96601 2.41004,-5.29331c-0.40525,-2.97608 -2.41004,-6.60849 -3.61707,-8.27127c-3.56926,-3.67201 -3.56926,-7.96149 0,-6.6484c2.81081,1.3155 11.55712,-2.31723 11.55712,-4.63645c0,-1.00571 1.16359,-1.66247 2.76725,-1.66247c1.60815,0 2.36636,2.00975 2.36636,4.63854c0,3.32315 0.80189,4.63676 2.81093,3.67044c1.5601,-0.69457 2.76737,-2.66661 2.76737,-3.97991c0,-3.982 12.71634,-10.93788 15.88448,-8.96594c1.20727,0.65707 2.40992,0 2.81542,-2.31901c1.1591,-4.63854 8.34094,-8.27127 11.50907,-5.95194c1.60815,0.96601 3.16838,0.65686 3.57363,-0.34708c0.80177,-1.31539 3.97003,-2.31932 7.53917,-2.629c3.56914,-0.34708 8.34543,-1.66247 10.35447,-3.01547c7.53917,-4.28948 15.08283,-3.98001 18.25096,0.65885c2.00904,3.32294 2.81081,3.32294 2.81081,1.00362c0,-2.97608 1.56459,-3.32315 11.1128,-2.31901c15.12638,1.31539 17.49275,1.31539 23.07093,-0.34739c3.56914,-0.96622 4.77617,-0.65675 4.77617,2.00954c0,1.66278 1.15934,2.97618 2.76737,2.97618c1.20278,0 2.362,-0.96632 2.362,-1.97204c0,-2.6663 6.38444,-3.97991 11.9625,-2.6663c4.32747,1.31539 4.72836,1.66215 3.56914,10.59017c-0.40089,5.33301 0,8.96573 0.75833,8.96573c0.80177,0 1.60803,-2.31932 1.60803,-5.64248c0,-5.60466 4.37103,-7.9221 5.97906,-3.32326c0.40101,1.66079 1.5601,1.00393 2.362,-1.62276c2.00916,-6.95787 6.38444,-3.32525 5.17717,4.28948c-1.20266,6.29902 -1.20266,6.29902 2.36649,3.9797c2.00892,-1.00393 3.56902,-3.63241 3.56902,-5.29331c0,-1.66257 1.20727,-3.63451 2.81105,-4.32918c3.16801,-1.31309 6.74164,3.67075 5.57806,7.30494c-0.40089,1.661 -0.40089,2.97608 0.75821,2.97608c0.80626,0 1.60815,-0.96601 1.60815,-1.66247c0,-0.96622 1.96536,-1.31361 4.37528,-0.65654c5.17293,1.00393 5.93114,3.67023 1.56023,5.2931c-1.15922,0.69646 -2.36636,2.31932 -2.36636,3.67253c0,2.31932 0.80614,2.31932 5.17717,0c7.13828,-3.97991 10.30642,-3.67253 11.51368,0.65654c0.80177,2.31932 2.36624,3.32504 3.97003,2.31932c1.60803,-0.34729 5.17717,1.00571 7.94454,3.32315c2.40992,1.97193 5.97906,3.63272 7.5871,3.63272c2.36636,0 2.36636,1.66268 1.5601,6.30101c-0.80177,4.98593 -0.80177,5.64248 1.60815,3.63293c3.16813,-3.28565 4.37103,-2.97639 5.53462,1.66037c0.40089,2.31932 3.21169,3.98179 6.37995,4.98572c3.56914,0.65885 5.53462,2.31922 5.53462,4.29126c0,2.00975 1.20266,4.3273 2.40992,5.64269c3.16826,2.31901 2.362,9.27489 -1.20727,11.59411c-1.20266,0.69468 -2.76713,0.34739 -3.16813,-0.65654c-0.80177,-1.00592 -3.56914,-1.00592 -8.74644,0c-8.34543,2.31723 -9.90553,2.97587 -7.94442,5.98955c1.20715,1.97015 15.08707,1.31361 22.66992,-1.00571c2.36636,-1.00404 3.16826,0 3.16826,4.63865c0,3.32294 -0.80189,5.95194 -2.00467,5.95194c-0.80626,0 -1.56447,1.00383 -1.56447,2.6663c0,3.98158 1.96548,3.63241 7.14265,-1.00414c2.76288,-2.6663 4.37091,-3.32493 6.33639,-1.66215c2.00467,1.66215 2.40992,1.66215 2.40992,-1.00414c0,-1.62486 -0.80626,-2.97587 -2.00892,-2.97587c-0.75833,0 -1.56459,-1.31539 -1.56459,-2.629c0,-1.66226 1.16359,-2.97587 2.76725,-2.97587c1.20715,0 2.81093,0.65654 2.81093,1.62287c0,1.00613 1.56447,2.31922 3.57351,2.66661c2.763,1.00592 3.56914,2.31932 3.16813,6.29923c-0.80614,7.6142 0.80201,9.93373 6.7374,8.62033c2.81093,-0.65885 4.37091,0 3.16826,1.3134c-0.35733,0.65654 0,2.31932 0.80189,3.01348c3.21606,1.97214 2.00892,6.60901 -1.56023,6.60901c-4.37528,0 -5.57818,1.66215 -3.21169,4.63833c1.60366,1.66247 2.81081,1.97015 4.37091,0.65675c3.61707,-3.32315 4.3754,-0.65675 4.77629,12.60034c0,6.6461 0.80189,11.9415 1.60378,11.9415c1.96536,0 1.20715,7.30494 -1.60378,10.28081c-1.56447,1.66069 -1.56447,3.28345 -0.40089,4.63645c2.81081,2.97618 0,11.59474 -3.57363,11.59474c-3.16801,0 -9.1472,6.29902 -9.1472,9.2751c0,3.63471 -5.12925,0 -6.33639,-3.98001c-1.20278,-3.63262 -1.20278,-3.63262 -2.00904,-1.00571c-0.75821,3.01557 3.57351,12.29067 7.18633,14.91915c2.36624,2.01007 -2.00904,5.33301 -5.17729,3.98001c-1.60815,-0.65654 -2.36636,-2.6267 -2.36636,-4.63655c0,-5.64216 -9.94921,-19.86558 -17.49275,-25.19839c-4.01359,-2.629 -7.58285,-5.60487 -7.58285,-6.6087c0,-2.00986 -12.72071,-8.27127 -19.85899,-10.28102c-3.97452,-1.00571 -5.17729,-0.65665 -5.17729,2.00975c0,1.97015 -0.75821,2.6267 -2.36636,1.97015c-3.56914,-1.31361 -5.17717,1.66278 -2.00892,4.63865c4.37528,3.63262 3.61707,7.96149 -1.15922,6.29902c-3.21181,-1.00393 -3.61282,-0.65686 -2.40992,4.98583c0.40089,3.28533 1.20715,7.6142 1.20715,9.58435c0,2.00986 0.80177,3.32347 1.60366,3.32347c1.16371,0 1.56447,-0.65686 0.75833,-1.66069c-0.40089,-1.00592 0.40537,-1.97204 2.00892,-1.97204c1.20727,0 2.36636,1.31518 2.36636,2.62858c0,1.35321 -1.56435,2.6663 -4.37528,2.31953c-2.362,0 -4.37103,-0.96632 -4.37103,-1.62308c0,-3.01578 -10.71179,-23.53791 -13.87993,-26.55159c-3.56926,-3.28565 -1.2029,-4.28948 -29.40744,11.28485c-4.37091,2.31932 -9.1472,7.30494 -11.55712,10.93788c-1.96548,3.63241 -5.13361,7.30494 -6.7374,7.96149c-1.60803,0.65686 -7.54354,5.95194 -12.72083,11.59442c-22.26904,24.84921 -18.65197,27.82529 -17.09174,78.57165c6.74164,38.45349 6.74164,38.45349 6.74164,38.45349c-15.88896,0 -15.88896,0 -15.88896,0c-13.11735,0 -13.11735,0 -13.11735,0c1.20278,-35.47962 1.20278,-35.47962 1.20278,-35.47962c0.80177,-2.97388 1.20715,-8.96542 1.60815,-12.28889c0.40089,-1.97193 -11.15636,-10.59049 -10.75535,-12.56043c0,-1.66247 11.95813,2.97618 11.95813,1.3134c1.96536,-24.19267 0,-43.43943 -5.17729,-53.68252c-1.20278,-6.29933 -11.15624,-26.5496 -12.71634,-26.5496c-0.40101,0 -3.21181,-1.97193 -5.97906,-4.29126c-4.77641,-4.32709 -6.7374,-4.63676 -33.38184,-5.95194c-28.60543,-1.35122 -28.60543,-1.35122 -28.60543,-1.35122c-6.78096,4.63676 -6.78096,4.63676 -6.78096,4.63676c-3.97003,3.01547 -7.94442,4.98572 -9.10376,4.98572c-2.40992,0 -12.36338,6.95755 -16.69086,10.93725c-0.40089,0 -0.80177,-0.34676 -0.80177,-0.65654c-0.40101,0 -0.40101,0 -0.40101,-0.34729c-0.40089,-0.96601 -0.80614,-1.97193 -1.60803,-2.97587c2.40992,-1.66247 4.37528,-2.66818 5.17717,-2.31901c1.20278,0.65654 2.36636,0 2.36636,-1.66278c0,-1.66069 -2.36636,-2.31922 -8.70276,-1.66069c-7.58722,1.00414 -9.55257,1.35122 -10.75535,5.29341c-1.96548,2.00975 -2.36636,4.98583 -1.20278,7.30515c-0.40537,2.97587 -0.40537,4.98562 0,4.98562c0.40089,0 0.80177,-0.65654 2.00467,-1.353c0,0.34739 0.40089,0.69646 0.80614,1.00571c-3.97439,1.00393 -5.98343,3.98001 -5.57818,6.95588c-2.00892,1.353 -3.97439,2.00975 -6.3842,3.01369c0,0 0,-0.34708 -0.35745,-0.34708c1.56447,-2.97587 2.36636,-6.29933 2.76725,-11.28495c0.80626,-5.60487 0.40089,-9.2751 -0.80177,-9.2751c-0.80189,0 -1.60803,1.353 -1.60803,3.32284c0.40076,1.66278 -0.35745,3.32347 -1.96123,3.63293c-1.20715,0.34708 -2.00892,-0.30947 -2.00892,-1.97015c0,-3.98179 -1.56023,-3.98179 -5.13373,-0.34907c-1.60366,1.353 -4.77192,2.97608 -7.53917,3.67253c-3.61707,0.96601 -4.77629,0.30915 -6.38432,-3.32347c-1.20278,-2.97587 -2.00467,-6.30101 -1.20278,-7.61441c0.40089,-1.66247 0.40089,-3.01369 -1.15922,-3.01369c-4.3754,0 -1.20715,-5.2954 3.97003,-6.30112zm34.18361,-76.21273c-2.40992,-0.34708 -4.3754,-1.3134 -5.17717,-2.6664c-0.40101,-1.97193 -0.80189,-1.97193 -0.80189,0c0,1.353 -1.60803,2.31932 -3.16826,2.6664c-2.81081,0 -2.81081,0.34729 0.40101,1.66278c1.96099,0.65654 3.97003,1.66037 4.37091,1.66037c0.35733,0 2.36636,-1.00383 4.3754,-1.66037c3.56914,-1.66278 3.56914,-1.66278 0,-1.66278zm315.14358,53.37306c0.75833,0.65686 1.56023,-0.34907 1.56023,-2.00975c0,-1.31518 -0.80189,-2.62879 -1.56023,-2.62879c-1.20702,0 -2.00892,0.65675 -2.00892,1.62287c0,1.00592 0.80189,2.35892 2.00892,3.01568zm-2.81081,2.97608c-0.40089,-1.00592 -2.36636,-2.31922 -3.97439,-2.31922c-1.15922,0 -1.96111,1.3133 -1.15922,2.31922c0.35733,1.00393 1.96536,1.66079 3.56914,1.66079c1.56447,0 1.96536,-0.65686 1.56447,-1.66079zm-3.56914,14.91736c1.20278,0 2.81081,-0.34708 2.81081,-0.65654c0,-0.69646 -1.60803,-1.353 -2.81081,-2.00986c-1.56447,-0.65675 -2.76737,-0.30947 -2.76737,0.65686c0,1.00571 1.2029,2.00954 2.76737,2.00954zm3.16826,-31.49741c1.60366,-0.65707 2.4098,-1.66268 2.00467,-2.629c-1.2029,-2.35683 -7.9403,-2.35683 -7.9403,0c0,2.629 2.36212,3.63293 5.93563,2.629zm-21.82447,-24.85152c-2.00904,1.00592 -3.21181,2.97608 -2.81105,3.98179c2.00904,2.62701 4.37552,1.97015 6.38007,-2.31932c1.96548,-3.98179 1.16359,-4.63833 -3.56902,-1.66247zm-7.58722,51.05384c10.35434,8.92771 10.75535,9.2751 10.75535,6.29923c0,-1.66069 -0.80189,-3.01369 -2.00904,-3.01369c-1.1591,0 -3.16813,-1.66278 -4.37091,-3.63262c-1.15934,-1.97225 -3.56914,-3.98211 -5.53462,-3.98211c-3.6127,0 -3.6127,0.34917 1.15922,4.32918zm-8.34118,-15.61403c2.40568,0 3.56926,-0.65654 2.00479,-0.96611c-1.20278,-0.65675 -3.16826,-0.65675 -4.37103,0c-1.20727,0.30957 0,0.96611 2.36624,0.96611zm-11.51356,-45.06229c1.20278,1.00414 4.77192,2.31754 7.94005,2.97618c5.5783,1.00383 5.97919,1.00383 2.81093,-1.66247c-3.6127,-3.28565 -13.51823,-4.28948 -10.75098,-1.31371zm-24.23451,-54.99561c-1.20278,0.96601 -1.60366,2.97587 -1.20278,4.28916c0.80189,2.66661 3.16826,0.34739 3.16826,-3.63262c0,-2.00986 -0.40101,-2.31932 -1.96548,-0.65654zm11.91457,71.57596c3.16826,1.66048 4.3754,1.66048 5.98355,-0.65864c3.16813,-3.63283 1.1591,-5.29331 -4.77641,-2.97576c-4.77629,1.62465 -4.77629,1.62465 -1.20715,3.6344zm-7.94005,-16.58036c5.97906,-3.63231 5.97906,-3.63231 1.20278,-3.63231c-3.21181,0 -5.57818,1.31309 -6.78096,3.63231c-0.75833,2.31754 -1.56447,3.63293 -1.16359,3.63293c0,0 3.16826,-1.97214 6.74177,-3.63293zm-8.74644,53.72045c2.76288,3.63293 7.53929,3.63293 5.97906,-0.34729c-0.40089,-1.31518 -0.80614,-2.97587 -0.80614,-3.32504c0,-0.30947 -1.60378,-0.30947 -3.56914,0.34917c-3.21181,0.65675 -3.21181,1.66069 -1.60378,3.32315zm-12.31982,-13.60417c3.16813,3.63283 4.77629,3.97991 8.34543,1.31361c2.36636,-1.66069 2.36636,-1.66069 0,-1.97015c-1.20278,0 -4.37103,-0.34917 -7.13828,-1.00592c-3.97439,-1.3134 -3.97439,-1.3134 -1.20715,1.66247zm-0.40089,-36.13626c2.00892,0 4.37528,-5.29509 3.16826,-6.95577c-1.56023,-1.66247 -4.77204,1.00383 -4.77204,3.97991c0,1.66257 0.80189,2.97587 1.60378,2.97587zm-19.45386,22.53198c-2.40992,1.353 -2.00892,1.66278 1.15934,1.66278c2.00892,0 4.37091,-0.65885 5.17717,-1.66278c1.20266,-2.62848 -2.76737,-2.62848 -6.33651,0zm0.40101,29.1786c0.35733,0.34917 1.5601,-0.34729 2.76725,-1.97015c1.20266,-1.353 4.77204,-3.01547 7.53917,-3.67232c3.56914,-1.00414 5.17729,-2.62691 5.17729,-4.98583c0,-5.60256 -5.57818,-3.94219 -11.51381,3.32514c-2.4098,3.67054 -4.37091,6.64662 -3.96991,7.30316zm-4.37528,-15.26486c3.56902,-3.63241 3.56902,-4.29126 0.75809,-5.29519c-3.16813,-1.31361 -5.53013,1.66278 -5.53013,6.95588c-0.40525,3.98179 -0.40525,3.98179 4.77204,-1.66069zm-6.38007,-39.11203c0.40089,2.6663 1.20278,2.31922 3.56902,-2.62879c2.81105,-5.29341 2.81105,-5.98987 0.40101,-5.98987c-1.5601,0 -3.16826,1.00414 -3.56914,2.66671c-0.80189,1.3133 -0.80189,4.32908 -0.40089,5.95194zm-1.96548,-27.16885c0,1.35122 0.75821,4.63676 1.56447,6.95588c1.20278,4.63854 1.20278,4.63854 2.40992,0.65675c1.5601,-3.9797 0,-9.93164 -2.40992,-9.93164c-1.16359,0 -1.56447,1.00362 -1.56447,2.31901zm-27.84285,10.93578c-1.96536,2.31932 -1.96536,4.63865 -0.40525,11.59442c0.80626,4.98572 2.8153,9.97155 3.97439,10.93788c2.00904,1.66247 2.40992,0 2.81081,-10.27924c0,-12.56074 -2.00892,-16.54222 -6.37995,-12.25306zm3.56914,35.13233c0.40101,0.65686 1.20278,-0.65675 0.80189,-2.62869c0,-2.00986 -0.40089,-2.31932 -1.20278,-1.00393c-0.35745,1.3134 -0.35745,2.97587 0.40089,3.63262zm14.32449,-31.15054c-0.40089,0.65686 -0.40089,5.2954 0.80189,10.27924c1.20715,8.62033 1.56447,8.96741 1.96548,2.66818c0.40089,-10.28102 -0.40101,-15.26664 -2.76737,-12.94742zm-13.5226,93.48933c2.40992,-3.98179 6.38007,-10.62841 9.14732,-14.60989c3.16813,-4.28979 5.17717,-9.93195 5.97906,-15.57443c1.16359,-8.92802 1.16359,-8.92802 1.16359,-8.92802c-4.77629,4.94801 -4.77629,4.94801 -4.77629,4.94801c-2.36636,2.66661 -3.97015,5.64248 -3.97015,6.64662c0,2.62858 -7.54354,19.20862 -9.9099,22.1847c-1.20278,1.66037 -3.21181,5.33301 -3.56914,7.96149c-2.00904,7.61284 1.56447,6.29923 5.93551,-2.62848zm-28.20454,34.12641c1.20715,6.60849 1.20715,6.60849 5.17729,-7.61452c2.36636,-7.65244 5.93551,-19.90319 8.34543,-27.51781c3.16813,-9.62249 4.37528,-17.58397 4.37528,-28.831c0,-14.60842 -0.40525,-14.91789 -3.57339,-13.25511c-7.18196,4.28937 -11.15636,16.23087 -12.76014,39.4194c-0.75821,11.9438 -1.56447,23.8853 -2.36624,26.51409c-0.40101,2.6664 0,7.65223 0.80177,11.28495zm0.80626,-84.83317c1.5601,3.28554 3.16826,5.95194 3.16826,5.95194c0.40089,0 2.36187,-2.00986 3.97003,-4.63833c2.00892,-2.31744 5.17717,-4.98384 6.38007,-5.95016c4.73261,-3.01547 5.93538,-12.29056 1.96536,-18.58979c-3.16826,-5.64248 -11.91457,-11.94359 -13.52272,-9.93373c-0.80177,0.65675 -1.96099,6.95787 -2.76725,14.26103c-1.60366,10.93756 -1.60366,14.2625 0.80626,18.89905zm-2.40992,-75.90483c0.80189,0.65864 1.60366,0.30947 1.60366,-0.69436c0,-1.31539 -0.80177,-2.629 -1.60366,-3.28565c-1.20715,-0.69635 -1.96548,-0.34729 -1.96548,0.96632c0,1.00393 0.75833,2.31932 1.96548,3.01369zm-128.74632,89.12212c5.5345,0.34907 5.5345,0.34907 5.5345,0.34907c5.57818,0 11.15636,-4.29126 11.15636,-7.96149c0,-2.31932 -0.40089,-2.31932 -16.69086,7.61242zm2.36636,-9.2752c0,1.00624 0.80189,2.00986 2.00904,2.00986c1.96111,0 7.53917,-5.95194 6.33639,-6.95577c-1.20715,-1.353 -8.34543,2.97576 -8.34543,4.94592zm4.37528,-22.84114c5.97919,6.61027 8.74644,7.26702 11.91457,2.97576c3.21181,-3.9797 0.40101,-6.64631 -9.15157,-7.61263c-7.94018,-1.00592 -7.94018,-1.00592 -2.763,4.63687zm-4.37528,-18.58812c0,0.69436 2.81081,2.31723 5.97906,3.67023c14.68194,6.29933 17.49275,6.29933 17.09174,0.30978c0,-3.63293 -5.97906,-11.59463 -8.34543,-11.59463c-2.81081,0 -14.72538,6.29923 -14.72538,7.61462zm21.46714,47.07205c4.37103,0 4.77192,-1.00414 1.20278,-2.62701c-1.60803,-0.34907 -3.16826,0 -3.56914,0.96632c-0.80626,1.00362 0.40089,1.66069 2.36636,1.66069zm3.16826,-77.8753c-2.76737,-1.66268 -6.34088,-2.31922 -7.94454,-1.66268c-2.76725,1.31539 -2.36636,1.66268 1.60366,2.6663c1.96548,0.65885 5.98355,1.3155 7.94454,1.62496c2.36636,0 2.36636,-0.65864 -1.60366,-2.62858zm-0.35733,11.9415c2.36187,0 2.76725,-0.34729 1.15922,-1.35122c-1.15922,-0.30926 -2.76737,-0.30926 -3.56926,0.34739c-0.40089,0.65654 0.80189,1.31361 2.41004,1.00383zm2.36187,7.61473c-5.57806,0 -5.57806,0.30915 -2.36187,2.97576c3.97003,2.97587 5.12925,3.32294 6.7374,1.3134c2.76713,-2.62701 0.80177,-4.28916 -4.37552,-4.28916zm7.94466,-37.44987c-1.60815,-1.66247 -2.00904,1.31361 -1.2029,4.94623c0.40089,2.31932 2.00467,4.32887 2.81093,4.32887c1.5601,0 0.40089,-7.30494 -1.60803,-9.2751zm12.71634,43.74858c-0.80177,0.30978 1.20715,2.31932 3.57351,3.982c2.40992,1.66069 4.37091,2.31733 4.37091,1.3134c0,-2.31901 -6.73728,-6.64809 -7.94442,-5.2954zm-9.94921,2.31932c-3.56914,2.31953 -1.5601,8.27116 3.61282,9.27531c2.76725,0.65665 7.14265,3.32326 9.9099,5.95173c2.40992,2.66661 4.37091,3.67253 4.37091,2.66661c0,-3.32315 -15.8846,-19.24665 -17.89363,-17.89365zm16.28997,27.51813c-2.36624,-5.335 -5.13361,-7.96201 -10.31091,-9.62448c-3.97003,-1.3134 -7.94442,-2.00954 -9.1472,-1.66048c-1.20715,0.34708 3.56914,4.63655 10.35447,9.62228c12.71634,8.61855 12.71634,8.61855 9.10364,1.66268zm21.10545,-51.05405c-0.80189,0 -1.60815,1.31361 -1.60815,2.62701c0,1.66247 0.80626,2.66661 1.60815,2.66661c1.15922,0 1.96548,-1.00414 1.96548,-2.66661c0,-1.3134 -0.80626,-2.62701 -1.96548,-2.62701zm-3.6127,27.16885c0,2.31901 6.78096,0.65675 9.54821,-2.31932c3.97015,-4.98562 3.56914,-6.29923 -1.60803,-6.29923c-3.56914,0 -7.94018,4.63875 -7.94018,8.61855zm11.55724,-71.57628c-1.20715,4.28948 -2.00904,7.9221 -1.60803,8.27127c1.20702,1.31361 4.3754,-8.61834 4.3754,-12.60014c0,-1.66069 -1.20727,0.34917 -2.76737,4.32887zm20.66101,66.93763c-2.00904,0 -3.56926,0.65885 -3.56926,1.97193c0,1.00414 1.15922,1.66278 2.362,1.66278c1.60803,0 3.16826,-0.65864 3.57351,-1.66278c0.80189,-1.31309 -0.40525,-1.97193 -2.36624,-1.97193zm-4.77641,62.30087c2.36636,5.99165 5.93551,11.59442 7.94454,12.94742c2.00904,1.00414 5.97906,5.64269 8.34543,10.28102c2.36636,4.63676 4.77629,8.26949 5.17729,8.26949c1.96099,0 -2.00904,-30.492 -4.77629,-39.76888c-2.41004,-7.95971 -3.16838,-15.26486 -2.76737,-26.85928c0.35733,-8.61834 0,-16.23296 -0.80177,-16.88961c-0.40101,-0.65675 -3.16826,-0.65675 -5.57818,0c-4.3754,1.3134 -4.77629,2.31932 -4.77629,9.62427c0,5.60288 -0.80201,8.61855 -2.76737,9.93164c-5.57806,2.97618 -5.17717,19.86569 0,32.46394zm-11.51356,-44.40533c-0.80189,-4.98572 -1.60366,-5.64248 -5.97906,-5.64248c-5.17729,0 -5.17729,0.34729 -4.77629,7.30316c0,4.29126 0.80614,9.27688 1.20702,11.59432c0.40101,2.31932 1.96548,4.63833 3.56926,4.98572c3.16813,1.66268 6.73728,-9.93164 5.97906,-18.24073zm-5.97906,33.46777c-3.56926,-3.98001 -5.97906,-8.26949 -6.33651,-9.2751c0,-1.3134 -2.00892,-4.63655 -4.37103,-7.61263c-2.40992,-2.97587 -5.17717,-6.64819 -6.38432,-7.9618c-3.97003,-4.63833 -3.16826,-0.65654 1.20715,9.62249c2.76725,6.95755 7.53929,13.25689 13.11735,18.55197c10.31079,8.96563 11.51368,7.30348 2.76737,-3.32493zm-6.33651,16.27057c4.32747,0 3.97015,-0.34708 -2.00892,-5.64216c-3.97015,-3.32347 -6.7374,-6.95609 -6.7374,-8.61866c0,-1.3133 -5.17729,-5.98976 -11.15624,-10.27924c-5.93563,-4.32876 -11.51381,-8.61824 -12.31558,-9.93342c-0.80626,-1.66069 -1.20715,-1.66069 -1.20715,0.30947c0,2.00986 -1.96111,2.31901 -8.34543,1.3134c-4.37103,-0.65686 -7.94018,-0.65686 -7.94018,-0.30769c0,0.65675 1.60366,4.63676 3.21181,8.61824c2.76737,6.6088 3.97003,7.96201 12.71646,10.58881c5.53462,1.66247 14.28081,5.64237 19.85899,8.61824c5.17729,3.01578 11.51368,5.33301 13.92361,5.33301zm-62.0307,11.24703c1.60803,0 3.97439,-0.65654 5.57806,-1.66215c2.76737,-2.31754 0.40537,-2.31754 -4.77192,0c-2.36636,1.00561 -2.76725,1.31508 -0.80614,1.66215zm-4.37103,-8.27116c3.97015,-1.35101 16.69086,-2.6664 28.2481,-2.6664c21.82022,-0.30947 26.1955,-1.31309 17.44907,-3.32315c-2.76713,-0.65654 -9.10364,-2.31932 -14.28081,-3.98001c-9.14732,-2.97587 -27.84722,-1.97193 -29.80833,1.35153c-0.40525,0.65832 -2.40992,1.00561 -4.37528,0.65832c-3.97015,-1.00571 -7.94454,1.6609 -9.14732,6.95609c-1.60803,4.28916 1.20278,4.63833 11.91457,1.00362zm-31.77368,7.61462c0.80189,2.66661 4.77629,2.97587 7.94454,0.65654c1.96099,-1.3133 1.96099,-1.96984 0,-3.9797c-1.60803,-1.97225 -2.76725,-1.97225 -5.17717,-0.30947c-1.60803,0.96632 -2.76737,2.62701 -2.76737,3.63262zm-12.71646,23.18884c1.56023,0 2.36212,1.00414 1.56023,2.97608c-0.35745,1.353 -1.56023,2.6664 -2.36636,2.6664c-1.20278,0 -1.96111,-1.3134 -1.96111,-2.6664c0,-1.62287 1.15922,-2.97608 2.76725,-2.97608z" stroke-width="1.5" fill="#7fff00"/>
 </g>
</svg>